<?xml version="1.0" standalone="no"?><!DOCTYPE svg PUBLIC "-//W3C//DTD SVG 1.1//EN" "http://www.w3.org/Graphics/SVG/1.1/DTD/svg11.dtd"><svg class="icon" height="512" viewBox="0 0 1024 1024" version="1.1" xmlns="http://www.w3.org/2000/svg"><path d="M502.387062 542.573319c-131.626853 0-238.714823-107.08797-238.714823-238.714823 0-131.629923 107.08797-238.71687 238.714823-238.71687 131.63197 0 238.718917 107.08797 238.718917 238.71687C741.105978 435.485349 634.019031 542.573319 502.387062 542.573319zM502.387062 121.494075c-100.55723 0-182.362374 81.807191-182.362374 182.364421 0 100.555184 81.805144 182.362374 182.362374 182.362374s182.366468-81.807191 182.366468-182.362374C684.753529 203.301266 602.944292 121.494075 502.387062 121.494075zM100.410897 961.51283c-15.560394 0-28.176736-12.616342-28.176736-28.176736 0-242.023172 196.899462-438.923658 438.920588-438.923658 80.241532 0 158.753677 21.861914 227.052203 63.21781 13.313214 8.05956 17.569144 25.38618 9.511631 38.696324-8.066723 13.308097-25.397437 17.569144-38.696324 9.506515-59.499116-36.025495-127.917368-55.0682-197.86751-55.0682-210.946386 0-382.568139 171.619706-382.568139 382.570185C128.587634 948.896488 115.971291 961.51283 100.410897 961.51283zM858.145601 933.272649 642.847094 933.272649c-48.102554 0-87.234807-39.132252-87.234807-87.234807L555.612287 727.789695c0-48.102554 39.132252-87.236853 87.234807-87.236853l215.298508 0c48.102554 0 87.2389 39.134299 87.2389 87.236853l0 118.247124C945.384501 894.140397 906.248156 933.272649 858.145601 933.272649zM642.847094 696.90529c-17.027815 0-30.882358 13.854543-30.882358 30.884404l0 118.247124c0 17.027815 13.854543 30.882358 30.882358 30.882358l215.298508 0c17.031908 0 30.886451-13.854543 30.886451-30.882358L889.032052 727.789695c0-17.029862-13.854543-30.884404-30.886451-30.884404L642.847094 696.90529zM815.459407 775.172865 679.273724 775.172865c-15.560394 0-28.176736-12.616342-28.176736-28.176736 0-15.560394 12.616342-28.176736 28.176736-28.176736l136.185682 0c15.560394 0 28.176736 12.616342 28.176736 28.176736C843.635119 762.556523 831.018777 775.172865 815.459407 775.172865zM759.105934 861.267708l-79.833233 0c-15.560394 0-28.176736-12.616342-28.176736-28.176736s12.616342-28.176736 28.176736-28.176736l79.833233 0c15.560394 0 28.176736 12.616342 28.176736 28.176736S774.666328 861.267708 759.105934 861.267708z" /></svg>